<svg height='300px' width='300px'  fill="#000000" xmlns="http://www.w3.org/2000/svg" xmlns:xlink="http://www.w3.org/1999/xlink" xml:space="preserve" version="1.1" style="shape-rendering:geometricPrecision;text-rendering:geometricPrecision;image-rendering:optimizeQuality;" viewBox="0 0 847 847" x="0px" y="0px" fill-rule="evenodd" clip-rule="evenodd"><defs><style type="text/css">
   
    .fil0 {fill:#000000}
   
  </style></defs><g><path class="fil0" d="M533 594c0,0 -151,57 -268,-35 0,0 37,-52 20,-99 0,0 43,-17 39,37 0,0 26,-15 3,-57 0,0 24,-4 38,44 0,0 20,-81 -53,-71 0,0 33,-36 76,9 0,0 -35,-74 -105,-28 0,0 -57,-6 -40,40 0,0 22,72 -30,85 -134,-132 0,-335 76,-226 0,0 59,9 57,-17 -65,-26 -90,-81 -29,-60 0,0 32,45 89,42 0,0 60,-34 -44,-73l-6 -65 -39 41c0,0 -34,-100 -137,-53 0,0 67,-7 63,37 0,0 -66,-41 -167,33 0,0 103,-29 127,-5 -208,49 -235,531 187,610 398,52 592,-619 92,-729 0,0 118,78 88,243 0,0 49,-8 47,-138 0,0 192,290 -84,435z"></path></g></svg>